<svg xmlns="http://www.w3.org/2000/svg" version="1.1" xmlns:xlink="http://www.w3.org/1999/xlink" xmlns:svgjs="http://svgjs.com/svgjs" width="512" height="512" x="0" y="0" viewBox="0 0 512 512" style="enable-background:new 0 0 512 512" xml:space="preserve" class=""><g><linearGradient xmlns="http://www.w3.org/2000/svg" id="SVGID_1_" gradientUnits="userSpaceOnUse" x1="422.823" x2="27.684" y1="34.302" y2="429.442"><stop stop-opacity="1" stop-color="#2d832f" offset="0"></stop><stop stop-opacity="1" stop-color="#6ddd77" offset="1"></stop></linearGradient><path xmlns="http://www.w3.org/2000/svg" d="m381.893 212.874c-69.339 0-125.75 56.411-125.75 125.75s56.411 125.75 125.75 125.75 125.75-56.411 125.75-125.75-56.411-125.75-125.75-125.75zm0 219.5c-51.694 0-93.75-42.056-93.75-93.75s42.056-93.75 93.75-93.75 93.75 42.056 93.75 93.75-42.056 93.75-93.75 93.75zm16-147.897v54.147c0 4.432-1.838 8.665-5.077 11.691l-31.62 29.544c-3.084 2.882-7.007 4.309-10.92 4.309-4.278 0-8.543-1.704-11.694-5.076-6.033-6.457-5.689-16.582.768-22.615l26.543-24.8v-47.2c0-8.837 7.164-16 16-16s16 7.163 16 16zm-16 195.524h-248.393v-80.509c0-8.837-7.164-16-16-16h-81.143v-351.492h329.536v150.314c0 8.836 7.164 16 16 16s16-7.164 16-16v-166.314c0-8.836-7.164-16-16-16h-361.536c-8.836 0-16 7.164-16 16v383.488c0 4.262 1.7 8.347 4.723 11.351l97.143 96.514c2.998 2.978 7.051 4.649 11.277 4.649h264.394c8.836 0 16-7.163 16-16s-7.165-16.001-16.001-16.001zm-280.393-22.451-42.332-42.058h42.332zm134.507-137.753c0 8.837-7.164 16-16 16h-128.035c-8.836 0-16-7.163-16-16s7.164-16 16-16h128.035c8.836 0 16 7.163 16 16zm0-71.759c0 8.836-7.164 16-16 16h-128.035c-8.836 0-16-7.164-16-16s7.164-16 16-16h128.035c8.836 0 16 7.164 16 16zm0 143.512c0 8.837-7.164 16-16 16h-56.48c-8.836 0-16-7.163-16-16s7.164-16 16-16h56.48c8.836 0 16 7.163 16 16zm74.276-199.264h-218.311c-8.836 0-16-7.164-16-16s7.164-16 16-16h218.311c8.836 0 16 7.164 16 16s-7.164 16-16 16zm16-87.759c0 8.836-7.164 16-16 16h-218.311c-8.836 0-16-7.164-16-16s7.164-16 16-16h218.311c8.836 0 16 7.164 16 16z" fill="url(#SVGID_1_)" data-original="url(#SVGID_1_)"></path></g></svg>