<svg xmlns="http://www.w3.org/2000/svg" version="1.1" xmlns:xlink="http://www.w3.org/1999/xlink" xmlns:svgjs="http://svgjs.com/svgjs" width="512" height="512" x="0" y="0" viewBox="0 0 512 512" style="enable-background:new 0 0 512 512" xml:space="preserve" class=""><g><defs xmlns="http://www.w3.org/2000/svg"><linearGradient id="linear-gradient" x1="83.312" y1="481.284" x2="83.312" y2="56.428" gradientUnits="userSpaceOnUse"><stop stop-opacity="1" stop-color="#6ddd77" offset="0.322"></stop><stop stop-opacity="1" stop-color="#6ddd77" offset="0.466"></stop><stop stop-opacity="1" stop-color="#2d832f" offset="0.752"></stop><stop stop-opacity="1" stop-color="#2d832f" offset="0.898"></stop></linearGradient><linearGradient id="linear-gradient-2" x1="140.492" y1="481.284" x2="140.492" y2="56.428" xmlns:xlink="http://www.w3.org/1999/xlink" xlink:href="#linear-gradient"></linearGradient><linearGradient id="linear-gradient-3" x1="180.987" y1="433.235" x2="180.987" y2="429.763" xmlns:xlink="http://www.w3.org/1999/xlink" xlink:href="#linear-gradient"></linearGradient><linearGradient id="linear-gradient-4" x1="197.999" y1="481.284" x2="197.999" y2="56.428" xmlns:xlink="http://www.w3.org/1999/xlink" xlink:href="#linear-gradient"></linearGradient><linearGradient id="linear-gradient-5" x1="198.195" y1="481.284" x2="198.195" y2="56.428" xmlns:xlink="http://www.w3.org/1999/xlink" xlink:href="#linear-gradient"></linearGradient><linearGradient id="linear-gradient-6" x1="256" y1="481.284" x2="256" y2="56.428" xmlns:xlink="http://www.w3.org/1999/xlink" xlink:href="#linear-gradient"></linearGradient></defs><path xmlns="http://www.w3.org/2000/svg" d="M74.683,69.027l0,0a6,6,0,0,0,8.444-.841h0c.715-.874,3.169-3.029,7.831-5.565a6,6,0,1,0-5.652-10.585l-.082.044c-6.934,3.771-10.108,6.947-11.383,8.5A6,6,0,0,0,74.683,69.027Z" style="fill:url(#linear-gradient)" fill=""></path><path xmlns="http://www.w3.org/2000/svg" d="M109.767,54.891a5.987,5.987,0,0,0,1.646-.231c17.051-4.853,38.291-7.526,59.809-7.526a6,6,0,0,0,0-12c-22.925,0-44.743,2.761-63.094,7.984a6,6,0,0,0,1.639,11.773Z" style="fill:url(#linear-gradient-2)" fill=""></path><path xmlns="http://www.w3.org/2000/svg" d="M180.992,431.5c-.121,0,.1,0,0,0Z" style="fill:url(#linear-gradient-3)" fill=""></path><path xmlns="http://www.w3.org/2000/svg" d="M225.543,410.15a49.984,49.984,0,0,0,9.2-22.709,15.068,15.068,0,0,0-14.877-17.375h-.242a15.3,15.3,0,0,0-15.336,15.306v2.52a6,6,0,0,0,12,0v-2.531a3.253,3.253,0,0,1,.958-2.319,3.334,3.334,0,0,1,2.378-.976h.242a3,3,0,0,1,2.305,1.058,3.081,3.081,0,0,1,.711,2.5,38.3,38.3,0,0,1-7,17.4c-8.515,11.538-21.428,15.008-29.008,16.042V373.749h6.8a6,6,0,1,0,0-12h-6.8V347.562A18.084,18.084,0,0,0,168.817,329.5h-1.352a6,6,0,0,0,0,12h1.352a6.069,6.069,0,0,1,6.064,6.062v14.187h-7.805a6,6,0,0,0,0,12h7.805V425.5a6.147,6.147,0,0,0,6.111,6C186.512,431.5,210.682,430.288,225.543,410.15Z" style="fill:url(#linear-gradient-4)" fill=""></path><path xmlns="http://www.w3.org/2000/svg" d="M239.891,303.277a88.126,88.126,0,1,0-2.4,156.488,6.007,6.007,0,1,0-5.476-10.693,76.129,76.129,0,1,1,33.327-32.349,5.864,5.864,0,0,0,1.123,7.086l.266.247a5.833,5.833,0,0,0,8.243-.3,5.906,5.906,0,0,0,.866-1.214A88.08,88.08,0,0,0,239.891,303.277Z" style="fill:url(#linear-gradient-5)" fill=""></path><path xmlns="http://www.w3.org/2000/svg" d="M426.4,250.706c-22.968-9.187-53.375-14.247-85.623-14.247a282.661,282.661,0,0,0-45.62,3.619V63.309c0-15.22-13.607-29.045-38.315-38.928-22.967-9.187-53.374-14.247-85.621-14.247S108.567,15.194,85.6,24.381C60.892,34.264,47.285,48.089,47.285,63.309V346.356c0,13.327,10.609,25.748,29.974,35.236a120.888,120.888,0,0,0,195.663,94.372c20.095,5.475,43.474,8.368,67.856,8.368,32.248,0,62.655-5.06,85.623-14.247,24.707-9.882,38.314-23.708,38.314-38.928V289.634C464.715,274.414,451.108,260.588,426.4,250.706Zm-85.621-2.247c30.757,0,59.582,4.755,81.166,13.388,19.555,7.822,30.771,17.95,30.771,27.787S441.5,309.6,421.944,317.42c-21.584,8.634-50.409,13.389-81.2,13.389a260.5,260.5,0,0,1-33.394-1.986,121.692,121.692,0,0,0-62.671-59.572C265.035,256.586,301.64,248.459,340.779,248.459Zm111.936,88.348c0,9.836-11.216,19.964-30.771,27.786-21.584,8.633-50.409,13.387-81.182,13.387-7.2.01-14.463-.269-21.668-.824a120.3,120.3,0,0,0-6.548-35.695c9.176.891,18.574,1.347,27.553,1.347,32.247,0,63.334-5.061,86.3-14.248,11.083-4.433,19.924-9.662,26.314-15.452ZM90.056,35.522c21.584-8.633,50.409-13.388,81.166-13.388s59.581,4.755,81.165,13.388c19.555,7.823,30.771,17.951,30.771,27.787S271.942,83.273,252.387,91.1c-21.584,8.633-50.408,13.388-81.165,13.388S111.64,99.729,90.056,91.1C70.5,83.273,59.285,73.146,59.285,63.309S70.5,43.345,90.056,35.522ZM59.285,133.96a70.462,70.462,0,0,0,12.5,8.869,5.991,5.991,0,1,0,6.115-10.3c-.073-.043-.146-.085-.221-.125-11.831-6.7-18.394-14.392-18.394-21.914v-23.7c6.39,5.79,15.231,11.018,26.314,15.451,22.968,9.187,53.375,14.247,85.623,14.247s62.654-5.06,85.621-14.247c11.084-4.433,19.925-9.661,26.315-15.451v23.7c0,9.837-11.216,19.965-30.771,27.787-21.583,8.633-50.408,13.388-81.165,13.388a270.709,270.709,0,0,1-45.489-3.716,5.934,5.934,0,0,0-6.97,5.828v.149a5.925,5.925,0,0,0,4.921,5.842,282.742,282.742,0,0,0,47.538,3.9c32.247,0,62.655-5.06,85.621-14.246,11.084-4.434,19.925-9.662,26.315-15.452v23.7c0,9.836-11.216,19.964-30.771,27.786-21.584,8.634-50.408,13.389-81.165,13.389s-59.584-4.754-81.166-13.387c-19.556-7.83-30.771-17.954-30.771-27.8Zm0,47.176c6.39,5.79,15.231,11.019,26.314,15.452,22.966,9.185,53.374,14.245,85.623,14.245s62.654-5.06,85.621-14.247c11.084-4.433,19.925-9.662,26.315-15.452v23.7c0,9.836-11.216,19.964-30.771,27.786-21.584,8.633-50.408,13.388-81.165,13.388s-59.582-4.755-81.166-13.388C70.5,224.8,59.285,214.669,59.285,204.833Zm0,47.173c6.39,5.79,15.231,11.018,26.314,15.452,22.968,9.187,53.375,14.246,85.623,14.246s62.654-5.059,85.621-14.246c11.084-4.434,19.925-9.662,26.315-15.452v14.059c-22.218,4.856-40.672,12.487-52.328,22.065a120.823,120.823,0,0,0-110.515,24.022c-36.625-7.217-61.03-21.715-61.03-36.448Zm0,47.092c10.667,9.689,28.053,17.73,50.52,23.05a121.448,121.448,0,0,0-19.82,28.483c-19.326-7.751-30.7-17.943-30.7-27.753ZM77.9,368.368c-11.921-6.742-18.613-14.542-18.613-22.012V322.714c6.3,5.687,14.984,10.82,25.866,15.211A120.035,120.035,0,0,0,77.9,368.368ZM274.579,448.8a6,6,0,0,0-8.485,8.486l4.753,4.752A108.515,108.515,0,0,1,204.2,489.7v-6.775a6,6,0,0,0-12,0V489.7a108.518,108.518,0,0,1-66.643-27.658l4.753-4.752a6,6,0,0,0-8.486-8.486l-4.752,4.753a108.516,108.516,0,0,1-27.658-66.643H96.19a6,6,0,0,0,0-12H89.418a108.516,108.516,0,0,1,27.658-66.643l4.753,4.754a6,6,0,1,0,8.486-8.485l-4.754-4.754a108.524,108.524,0,0,1,66.639-27.66V278.9a6,6,0,0,0,12,0v-6.776a108.516,108.516,0,0,1,66.643,27.658l-4.754,4.754a6,6,0,0,0,8.486,8.485l4.753-4.754a108.516,108.516,0,0,1,27.658,66.643h-6.775a6,6,0,0,0,0,12h6.775a108.51,108.51,0,0,1-27.658,66.643Zm178.136-17.645c0,9.837-11.216,19.965-30.771,27.787-21.584,8.633-50.409,13.388-81.166,13.388a258.789,258.789,0,0,1-57-6.02A121.589,121.589,0,0,0,306.3,435.136a285.766,285.766,0,0,0,33.76,2.023c32.247,0,63.373-5.061,86.341-14.248,11.083-4.433,19.924-9.662,26.314-15.452Zm0-47.175c0,9.837-11.216,19.965-30.771,27.788-21.584,8.633-50.408,13.387-81.2,13.387a260.869,260.869,0,0,1-29.389-1.52,120.138,120.138,0,0,0,7.513-34.457c7.164.53,14.49.8,21.536.8,32.247,0,63.027-5.06,86-14.247,11.083-4.433,19.924-9.661,26.314-15.451Z" style="fill:url(#linear-gradient-6)" fill=""></path></g></svg>