<svg xmlns="http://www.w3.org/2000/svg" version="1.1" xmlns:xlink="http://www.w3.org/1999/xlink" xmlns:svgjs="http://svgjs.com/svgjs" width="512" height="512" x="0" y="0" viewBox="0 0 50 50" style="enable-background:new 0 0 512 512" xml:space="preserve" class=""><g><defs xmlns="http://www.w3.org/2000/svg"><linearGradient id="linear-gradient" x1="9.82721" y1="8.93012" x2="47.57011" y2="46.67302" gradientUnits="userSpaceOnUse"><stop stop-opacity="1" stop-color="#2d832f" offset="0"></stop><stop stop-opacity="1" stop-color="#6ddd77" offset="1"></stop></linearGradient></defs><g xmlns="http://www.w3.org/2000/svg" id="Gradient"><path d="M45,5H39.869a1.03065,1.03065,0,0,1-.9763-.7966A3.00529,3.00529,0,0,0,36,2H24a3.00529,3.00529,0,0,0-2.8927,2.2034A1.03065,1.03065,0,0,1,20.131,5H15a2.99994,2.99994,0,0,0-3,3V25.2049a.97894.97894,0,0,1-.8387.9545A11.0109,11.0109,0,0,0,2.016,37.5988,11.22156,11.22156,0,0,0,13.3356,48H45.0009A2.99917,2.99917,0,0,0,48,45V8A2.99994,2.99994,0,0,0,45,5ZM23,5a1.00094,1.00094,0,0,1,1-1H36a1.00094,1.00094,0,0,1,1,1V7a1.00094,1.00094,0,0,1-1,1H24a1.00094,1.00094,0,0,1-1-1ZM4,37a9,9,0,1,1,9,9A9.01015,9.01015,0,0,1,4,37Zm42,8a1,1,0,0,1-1,1H21.921a.99517.99517,0,0,1-.744-1.6594A10.98225,10.98225,0,0,0,14.8303,26.158.96861.96861,0,0,1,14,25.2135V8a1,1,0,0,1,1-1h5.131a1.03065,1.03065,0,0,1,.9763.7966A3.00529,3.00529,0,0,0,24,10H36a3.00529,3.00529,0,0,0,2.8927-2.2034A1.03065,1.03065,0,0,1,39.869,7H45a1,1,0,0,1,1,1ZM18.7998,34.6001l-6,8a.99853.99853,0,0,1-.7285.3975C12.0469,42.999,12.0234,43,12,43a.99838.99838,0,0,1-.707-.293l-4-4a.99985.99985,0,1,1,1.414-1.414l3.1846,3.1845,5.3086-7.0776a.9999.9999,0,0,1,1.5996,1.2002ZM43,12H35a.99979.99979,0,0,0-1,1v8a.99979.99979,0,0,0,1,1h8a.99979.99979,0,0,0,1-1V13A.99979.99979,0,0,0,43,12Zm-1.5,8h-5a.50005.50005,0,0,1-.5-.5v-5a.50005.50005,0,0,1,.5-.5h5a.50005.50005,0,0,1,.5.5v5A.50005.50005,0,0,1,41.5,20ZM16,14a.99979.99979,0,0,1,1-1H31a1,1,0,0,1,0,2H17A.99979.99979,0,0,1,16,14Zm15,7H17a1,1,0,0,1,0-2H31a1,1,0,0,1,0,2Zm13,6a.99979.99979,0,0,1-1,1H23a1,1,0,0,1,0-2H43A.99979.99979,0,0,1,44,27Zm0,5a.99979.99979,0,0,1-1,1H27a1,1,0,0,1,0-2H43A.99979.99979,0,0,1,44,32Zm0,5a.99979.99979,0,0,1-1,1H28a1,1,0,0,1,0-2H43A.99979.99979,0,0,1,44,37Zm0,5a.99979.99979,0,0,1-1,1H27a1,1,0,0,1,0-2H43A.99979.99979,0,0,1,44,42Z" style="fill:url(#linear-gradient)" fill=""></path></g></g></svg>