<svg xmlns="http://www.w3.org/2000/svg" version="1.1" xmlns:xlink="http://www.w3.org/1999/xlink" xmlns:svgjs="http://svgjs.com/svgjs" width="512" height="512" x="0" y="0" viewBox="0 0 512.056 512.056" style="enable-background:new 0 0 512 512" xml:space="preserve" class=""><g><g xmlns="http://www.w3.org/2000/svg"><path d="m377.025 91.027c0-33.084-26.916-60-60-60s-60 26.916-60 60 26.916 60 60 60 60-26.916 60-60zm-60 30c-16.542 0-30-13.458-30-30s13.458-30 30-30 30 13.458 30 30-13.458 30-30 30z" fill="#6ddd77" data-original="#000000" class=""></path><path d="m504.975 108.93c-12.33-18.907-37.507-25.242-57.317-14.422l-103.486 56.52c-9.745 0-181.625 0-191.646 0v-136c0-8.284-6.716-15-15-15h-122.526c-8.284 0-15 6.716-15 15v91c0 8.284 6.716 15 15 15h107.525v376c0 8.284 6.716 15 15 15s15-6.716 15-15v-256h90v226c0 39 46.281 59.247 75 33.514 28.69 25.708 75 5.544 75-33.514v-232.87l99.751-64.985c20.162-13.134 25.846-40.084 12.699-60.243zm-474.975-17.903v-61h92.525v61zm317.525 391c-8.271 0-15-6.729-15-15 0-11.634 0-80.115 0-91 0-8.284-6.716-15-15-15s-15 6.716-15 15v91c0 8.271-6.729 15-15 15s-15-6.729-15-15v-136h90v136c0 8.271-6.729 15-15 15zm128.376-337.991-106.564 69.423c-4.249 2.769-6.812 7.497-6.812 12.568v75h-90v-75c0-8.284-6.716-15-15-15h-105v-30c204.27-.643 196.439 1.566 202.665-1.835l106.847-58.355c6.155-3.362 13.978-1.394 17.809 4.481 4.085 6.262 2.321 14.637-3.945 18.718z" fill="#6ddd77" data-original="#000000" class=""></path></g></g></svg>