<svg xmlns="http://www.w3.org/2000/svg" version="1.1" xmlns:xlink="http://www.w3.org/1999/xlink" xmlns:svgjs="http://svgjs.com/svgjs" width="512" height="512" x="0" y="0" viewBox="0 0 64 64" style="enable-background:new 0 0 512 512" xml:space="preserve" class=""><g><g xmlns="http://www.w3.org/2000/svg"><path d="m46 12.2c3.4 0 6.1-2.7 6.1-6.1s-2.8-6.1-6.1-6.1-6.1 2.7-6.1 6.1c-.1 3.4 2.7 6.1 6.1 6.1zm0-10.2c2.3 0 4.1 1.9 4.1 4.1 0 2.3-1.9 4.1-4.1 4.1-2.3 0-4.1-1.8-4.1-4.1-.1-2.2 1.8-4.1 4.1-4.1z" fill="#6ddd77" data-original="#000000" class=""></path><path d="m59.4 30.6-5.7-3.9c-5.1-10.1-5.3-11.7-8.3-12.3l-3.9-.8c-3-.6-6.4-.1-7.9.8l-7 3.8c-.7.4-1.2 1-1.4 1.7l-2.9 9.7c-.4 1.3.1 2.8 1.4 3.6l-2.2 5.6-4.7-2c-3-1.2-6.4.3-7.6 3.3l-6 15.3c-.2.5 0 1.1.5 1.3l6.9 2.9c0 1.6.9 3 2.4 3.6 1.9.8 4.1-.2 4.9-2.1.6-1.5.2-3.3-1.2-4.4l6.4-16.2 2.7-6.8c1.2-.2 2.1-1 2.5-2.1l2.7-8.3 4.3-2.4c-1.8 9.4-2 9.4-2 11l-1.1 17.2-4.7 9.3c-1.3 2.6.5 5.6 3.4 5.6h.1c1.4 0 2.8-.8 3.4-2l5.4-9.4c.5-.9.7-1.8.7-2.8v-6.1l4.2 5.6.5 11c.1 2 1.7 3.6 3.7 3.7h.1c2.2 0 4-1.8 4-3.9l.3-12.2c0-1.1-.2-2.2-.7-3.1-.1-.1.4.5-7.5-11.6l1.7-5.4 1.5 3c.2.5.6.8 1 1.1l6.4 4.2c1.6 1 3.7.5 4.6-1.1s.5-3.4-.9-4.4zm-43.3 29.8c-.4.9-1.4 1.4-2.3 1s-1.4-1.4-1-2.3 1.4-1.4 2.3-1c.4.2.8.5 1 .9.1.4.1.9 0 1.4zm-1.3-4.4c-1.4-.2-2.8.5-3.6 1.7l-5.8-2.4 4.6-11.4 8.1 3.9zm4-10-8.1-3.9.4-1.1c.8-2 3.1-3 5-2.2l4.7 2zm19.3 5.6-5.4 9.4c-.3.6-1 1-1.7 1-1.4 0-2.3-1.5-1.6-2.7l4.8-9.5c.1-.1.1-.3.1-.4l.7-13.2 3.6 4.7v8.8c0 .7-.2 1.3-.5 1.9zm9.1-31.5-4 12.8c-.1.3 0 .6.1.8l7.7 11.9c.3.7.5 1.4.5 2.1l-.3 12.2c0 1.1-.9 2-2.1 2-1 0-1.7-.8-1.8-1.8l-.5-11.3c0-.2-.1-.4-.2-.6l-10.3-13.6c-.6-.8-.9-1.7-1-2.6 1.7-9.2 2.2-11.9 2.3-12.6s0 0 0-.1c.2-.8-.7-1.5-1.5-1.1l-6.5 3.6c-.2.1-.4.3-.5.6l-2.7 8.6c-.1.5-.6.8-1.1.8-.7 0-1.3-.7-1.1-1.4l2.9-9.7c.1-.2.2-.4.4-.5l7-3.8c2.1-.8 4.4-1 6.6-.6l3.9.8c1.7.2 2.7 1.9 2.2 3.5zm11.5 13.8c-.4.6-1.2.8-1.7.4l-6.4-4.2c-.1-.1-.2-.2-.3-.3l-2.4-4.9 1-3.3 3.2 6.4c.1.1.2.3.3.4l5.9 4c.5.2.7.9.4 1.5z" fill="#6ddd77" data-original="#000000" class=""></path><path d="" fill="#6ddd77" data-original="#000000" class=""></path></g></g></svg>